<?xml version="1.0" standalone="no"?>
<!DOCTYPE svg PUBLIC "-//W3C//DTD SVG 20010904//EN"
 "http://www.w3.org/TR/2001/REC-SVG-20010904/DTD/svg10.dtd">
<svg version="1.0" xmlns="http://www.w3.org/2000/svg"
 width="200.000000pt" height="200.000000pt" viewBox="0 0 200.000000 200.000000"
 preserveAspectRatio="xMidYMid meet">
<g transform="translate(0.000000,200.000000) scale(0.100000,-0.100000)"
fill="#000000" stroke="none">
<path d="M690 1826 c0 -2 7 -7 16 -10 8 -3 12 -2 9 4 -6 10 -25 14 -25 6z"/>
<path d="M970 1823 c-19 -2 -100 -14 -180 -28 -80 -13 -175 -27 -212 -30 -40
-4 -72 -13 -80 -22 -26 -31 28 -367 99 -613 16 -59 42 -110 55 -110 22 0 2
100 -52 269 -62 190 -90 316 -90 402 l0 49 48 0 c26 0 110 7 187 15 187 19
361 19 437 0 69 -18 91 -9 86 34 -2 20 -10 27 -33 32 -32 7 -207 8 -265 2z
m163 -30 c-7 -2 -19 -2 -25 0 -7 3 -2 5 12 5 14 0 19 -2 13 -5z m117 -3 c3 0
-3 -5 -14 -11 -13 -8 -20 -8 -26 0 -4 8 -18 10 -36 6 -22 -5 -26 -4 -14 4 8 6
31 9 50 6 19 -2 37 -5 40 -5z"/>
<path d="M1291 1749 c-155 -104 -471 -412 -448 -435 15 -15 77 38 197 168 180
196 329 322 359 304 5 -3 21 -27 36 -52 15 -25 65 -100 111 -165 107 -150 161
-244 195 -339 28 -79 46 -94 83 -67 17 13 17 16 -13 81 -41 91 -104 184 -223
329 -55 67 -118 148 -140 180 -21 31 -45 57 -53 57 -7 0 -54 -27 -104 -61z
m436 -404 c0 -20 -4 -19 -17 5 -8 15 -8 18 3 14 8 -3 14 -11 14 -19z m27 -46
c-2 -4 3 -10 12 -13 9 -4 14 -9 11 -13 -3 -3 1 -19 9 -35 9 -16 12 -37 9 -46
-5 -12 -13 -1 -27 38 -23 66 -33 112 -19 90 5 -8 8 -17 5 -21z"/>
<path d="M1496 1728 c3 -5 10 -6 15 -3 13 9 11 12 -6 12 -8 0 -12 -4 -9 -9z"/>
<path d="M416 1625 c-58 -59 -124 -185 -211 -410 -35 -88 -73 -183 -86 -212
-28 -63 -23 -71 70 -118 83 -41 204 -84 399 -141 152 -44 206 -52 216 -35 12
18 -84 52 -260 90 -242 54 -407 111 -420 146 -4 8 4 32 16 52 12 21 51 100 85
176 82 179 137 274 203 350 56 65 60 81 26 104 -19 12 -24 12 -38 -2z m25 -29
c5 3 9 1 9 -3 0 -11 -57 -74 -67 -73 -4 0 -8 -5 -8 -12 0 -6 -6 -13 -12 -15
-20 -7 -15 10 12 39 14 15 25 32 25 38 0 5 6 9 13 8 7 -2 11 5 10 17 -1 11 0
14 3 7 3 -6 10 -10 15 -6z m-91 -140 c0 -2 -7 -7 -16 -10 -8 -3 -12 -2 -9 4 6
10 25 14 25 6z"/>
<path d="M1256 1612 c-3 -5 1 -9 9 -9 8 0 12 4 9 9 -3 4 -7 8 -9 8 -2 0 -6 -4
-9 -8z"/>
<path d="M1630 1594 c0 -6 7 -17 15 -24 8 -7 12 -17 8 -24 -4 -6 1 -5 10 3 17
13 14 36 -3 26 -5 -3 -13 3 -19 12 -6 10 -11 13 -11 7z"/>
<path d="M1159 1543 c-13 -16 -12 -17 4 -4 9 7 17 15 17 17 0 8 -8 3 -21 -13z"/>
<path d="M903 1495 c0 -7 7 -11 15 -7 11 4 13 1 7 -8 -5 -9 -4 -11 3 -6 16 10
15 14 -6 25 -14 7 -19 6 -19 -4z"/>
<path d="M1537 1476 c-7 -18 18 -42 28 -26 4 6 1 9 -7 8 -8 -2 -12 4 -10 15 3
21 -4 23 -11 3z"/>
<path d="M405 1461 c-3 -5 -2 -12 3 -15 5 -3 9 1 9 9 0 17 -3 19 -12 6z"/>
<path d="M1086 1457 c3 -10 9 -15 12 -12 3 3 0 11 -7 18 -10 9 -11 8 -5 -6z"/>
<path d="M1583 1455 c0 -8 4 -12 9 -9 5 3 6 10 3 15 -9 13 -12 11 -12 -6z"/>
<path d="M804 1389 c-4 -7 -3 -9 4 -5 5 3 13 0 15 -6 4 -9 6 -10 6 -1 1 17
-16 25 -25 12z"/>
<path d="M1806 1338 c3 -5 10 -6 15 -3 13 9 11 12 -6 12 -8 0 -12 -4 -9 -9z"/>
<path d="M930 1316 c0 -2 8 -10 18 -17 15 -13 16 -12 3 4 -13 16 -21 21 -21
13z"/>
<path d="M1196 1292 c-11 -19 90 -54 260 -92 99 -21 211 -50 249 -63 83 -28
175 -74 175 -86 0 -5 -11 -28 -25 -53 -13 -24 -51 -103 -84 -176 -78 -170
-138 -274 -201 -346 -27 -31 -50 -63 -50 -71 0 -17 38 -45 54 -39 19 7 95 130
136 217 21 45 59 138 84 207 26 69 61 155 78 192 37 82 36 84 -71 138 -90 44
-170 73 -384 134 -155 45 -211 54 -221 38z m475 -725 c-6 -8 -8 -17 -4 -20 3
-4 -2 -16 -12 -27 -10 -11 -14 -20 -9 -20 5 -1 -1 -9 -14 -20 -13 -10 -22 -22
-22 -27 1 -4 -3 -9 -9 -11 -24 -8 2 42 39 75 13 12 21 25 17 29 -6 7 10 34 20
34 3 0 0 -6 -6 -13z m-77 -148 c-3 -5 -10 -6 -16 -3 -7 5 -9 2 -6 -8 4 -9 0
-15 -8 -15 -17 0 -17 0 -2 31 9 20 14 23 24 15 8 -6 11 -15 8 -20z"/>
<path d="M176 1267 c3 -10 9 -15 12 -12 3 3 0 11 -7 18 -10 9 -11 8 -5 -6z"/>
<path d="M914 1097 c-37 -34 -39 -38 -39 -96 1 -55 4 -65 31 -91 62 -62 170
-46 209 31 23 43 12 111 -23 150 -22 24 -37 31 -83 36 -54 5 -58 4 -95 -30z
m118 3 c21 -6 42 -20 48 -30 8 -16 8 -18 -4 -14 -8 3 -17 0 -22 -7 -4 -7 -3
-10 4 -6 23 15 42 -5 42 -45 0 -56 -42 -98 -99 -98 -22 0 -46 7 -54 15 -8 8
-18 11 -21 7 -4 -3 -4 1 0 11 4 11 0 19 -10 23 -11 4 -16 19 -16 50 0 24 4 44
8 44 5 0 15 11 22 25 7 13 16 23 19 20 4 -2 13 0 21 6 19 11 17 11 62 -1z"/>
<path d="M1047 1079 c7 -7 15 -10 18 -7 3 3 -2 9 -12 12 -14 6 -15 5 -6 -5z"/>
<path d="M1331 1023 c-1 -17 16 -25 25 -12 4 7 3 9 -4 5 -5 -3 -13 0 -15 6 -4
9 -6 10 -6 1z"/>
<path d="M1280 987 c0 -2 6 -10 14 -16 11 -9 16 -9 22 1 4 7 4 10 -1 6 -4 -4
-14 -3 -22 3 -7 6 -13 9 -13 6z"/>
<path d="M1340 938 c0 -25 9 -71 20 -104 81 -234 130 -435 130 -533 l0 -41
-52 0 c-29 0 -114 -7 -188 -15 -180 -19 -356 -19 -432 0 -69 18 -91 9 -86 -34
2 -21 10 -27 43 -33 74 -13 199 -8 335 13 74 12 190 28 258 38 98 13 126 20
134 34 32 58 -89 654 -143 703 -18 16 -19 15 -19 -28z m-547 -722 c-4 -5 1 -7
10 -3 10 3 17 3 17 -2 0 -5 -9 -11 -20 -14 -11 -3 -18 0 -17 7 1 6 -4 10 -10
9 -7 -2 -13 1 -13 6 0 6 9 9 19 8 11 0 17 -5 14 -11z m102 -16 c-11 -5 -31 -8
-45 -8 l-25 0 25 8 c14 4 34 8 45 8 l20 1 -20 -9z"/>
<path d="M176 837 c-19 -14 -19 -17 21 -98 46 -95 108 -185 239 -344 50 -60
105 -132 123 -158 39 -58 42 -58 162 24 156 107 462 410 438 434 -11 11 -109
-74 -191 -165 -160 -177 -322 -320 -362 -320 -6 0 -23 22 -37 48 -15 26 -65
101 -112 167 -105 147 -170 261 -201 351 -24 74 -43 88 -80 61z m44 -42 c9
-11 10 -19 3 -26 -6 -6 -13 -1 -21 16 -13 28 -2 34 18 10z m31 -77 c6 -11 5
-19 -3 -24 -7 -4 -8 -3 -4 4 4 7 2 12 -3 12 -6 0 -11 12 -10 28 0 15 3 21 6
12 3 -8 10 -23 14 -32z m27 -50 c10 -12 10 -18 1 -24 -7 -4 -9 -3 -6 3 4 6 0
14 -9 17 -8 3 -12 11 -9 17 4 5 8 9 9 7 1 -2 7 -10 14 -20z"/>
<path d="M1606 631 c-4 -5 -2 -12 3 -15 5 -4 12 -2 15 3 4 5 2 12 -3 15 -5 4
-12 2 -15 -3z"/>
<path d="M384 619 c-3 -6 -2 -15 3 -20 5 -5 9 -1 9 11 0 23 -2 24 -12 9z"/>
<path d="M923 545 c0 -8 4 -12 9 -9 5 3 6 10 3 15 -9 13 -12 11 -12 -6z"/>
<path d="M1046 501 c-4 -5 -2 -12 3 -15 5 -4 12 -2 15 3 4 5 2 12 -3 15 -5 4
-12 2 -15 -3z"/>
<path d="M769 383 c-13 -16 -12 -17 4 -4 16 13 21 21 13 21 -2 0 -10 -8 -17
-17z"/>
<path d="M404 360 c0 -13 4 -16 10 -10 7 7 7 13 0 20 -6 6 -10 3 -10 -10z"/>
<path d="M940 330 c-9 -6 -10 -10 -3 -10 6 0 15 5 18 10 8 12 4 12 -15 0z"/>
<path d="M606 297 c3 -10 9 -15 12 -12 3 3 0 11 -7 18 -10 9 -11 8 -5 -6z"/>
</g>
</svg>
